<svg width="46" height="42" viewBox="0 0 46 42" fill="none" xmlns="http://www.w3.org/2000/svg">
<path d="M5.27081 5.6875L9.25748 6.3175L11.1032 26.3953C11.1741 27.1853 11.5687 27.9219 12.2082 28.4581C12.8476 28.9943 13.685 29.2906 14.5532 29.288H35.4641C36.2954 29.2888 37.0991 29.0156 37.7273 28.5185C38.3556 28.0214 38.7661 27.3339 38.8834 26.5825L40.7042 15.106C40.7528 14.8008 40.7349 14.4898 40.6518 14.1909C40.5686 13.892 40.4217 13.611 40.2194 13.3639C40.0172 13.1169 39.7637 12.9086 39.4732 12.7511C39.1828 12.5936 38.8612 12.4899 38.5269 12.446C38.4042 12.4337 9.89765 12.425 9.89765 12.425" stroke="black" stroke-width="4" stroke-linecap="round" stroke-linejoin="round"/>
<path d="M27.0729 18.8912H32.3878" stroke="#272343" stroke-width="3.5" stroke-linecap="round" stroke-linejoin="round"/>
<path fill-rule="evenodd" clip-rule="evenodd" d="M13.7118 35.3552C13.8524 35.3497 13.9927 35.3703 14.1244 35.4156C14.256 35.4609 14.3762 35.5301 14.4778 35.6189C14.5794 35.7078 14.6603 35.8145 14.7155 35.9327C14.7707 36.0508 14.7992 36.1779 14.7992 36.3064C14.7992 36.4348 14.7707 36.562 14.7155 36.6801C14.6603 36.7982 14.5794 36.905 14.4778 36.9938C14.3762 37.0827 14.256 37.1519 14.1244 37.1972C13.9927 37.2425 13.8524 37.263 13.7118 37.2575C13.4433 37.247 13.1896 37.1422 13.0036 36.965C12.8177 36.7877 12.7139 36.5518 12.7139 36.3064C12.7139 36.061 12.8177 35.825 13.0036 35.6478C13.1896 35.4706 13.4433 35.3658 13.7118 35.3552Z" fill="#272343" stroke="#272343" stroke-width="3.5" stroke-linecap="round" stroke-linejoin="round"/>
<path fill-rule="evenodd" clip-rule="evenodd" d="M35.3337 35.3553C35.6107 35.3553 35.8764 35.4557 36.0723 35.6346C36.2682 35.8135 36.3783 36.0561 36.3783 36.309C36.3783 36.562 36.2682 36.8045 36.0723 36.9834C35.8764 37.1623 35.6107 37.2628 35.3337 37.2628C35.0567 37.2628 34.791 37.1623 34.5951 36.9834C34.3992 36.8045 34.2891 36.562 34.2891 36.309C34.2891 36.0561 34.3992 35.8135 34.5951 35.6346C34.791 35.4557 35.0567 35.3553 35.3337 35.3553Z" fill="#272343" stroke="#272343" stroke-width="3.5" stroke-linecap="round" stroke-linejoin="round"/>
</svg>
